<?xml version="1.0" ?><svg id="Layer_1" style="enable-background:new 0 0 24 24;" version="1.1" viewBox="0 0 24 24" xml:space="preserve" xmlns="http://www.w3.org/2000/svg" xmlns:xlink="http://www.w3.org/1999/xlink"><g id="XMLID_1694_"><g id="XMLID_1601_"><path d="M18.061,8.043c0.586-0.586,0.586-1.536,0-2.121c-0.586-0.586-1.536-0.586-2.121,0    l-1.061,1.06L17,9.103L18.061,8.043z" id="XMLID_1606_" style="fill:#0DB14B;"/><path d="M14.879,6.982L1.94,19.921c-0.586,0.586-0.586,1.536,0,2.121    c0.586,0.586,1.536,0.586,2.121,0L17,9.103L14.879,6.982z" id="XMLID_1607_" style="fill:#9D581F;"/><path d="M18.061,5.921c-0.184-0.184-0.408-0.29-0.642-0.358    c0.149,0.509,0.044,1.078-0.358,1.479L16,8.103l1,1l1.061-1.061C18.646,7.457,18.646,6.507,18.061,5.921z" id="XMLID_1610_" style="opacity:0.1;enable-background:new    ;"/><path d="M16,8.103L3.061,21.042    c-0.401,0.401-0.97,0.507-1.479,0.358c0.068,0.234,0.174,0.458,0.358,0.642c0.586,0.586,1.536,0.586,2.121,0L17,9.103L16,8.103z" id="XMLID_1608_" style="opacity:0.1;enable-background:new    ;"/><g id="XMLID_1312_"><path d="M15.586,5.568l-14,14C1.208,19.945,1,20.448,1,20.982s0.208,1.036,0.586,1.414     S2.466,22.982,3,22.982s1.037-0.208,1.414-0.586l14-14C18.792,8.019,19,7.516,19,6.982s-0.208-1.037-0.586-1.414     C17.659,4.812,16.341,4.812,15.586,5.568z M3.707,21.689c-0.378,0.378-1.036,0.378-1.414,0C2.104,21.5,2,21.249,2,20.982     s0.104-0.518,0.293-0.707L14.879,7.689l1.414,1.414L3.707,21.689z M17.707,7.689L17,8.396l-1.414-1.414l0.707-0.707     c0.189-0.189,0.44-0.293,0.707-0.293s0.518,0.104,0.707,0.293S18,6.715,18,6.982S17.896,7.5,17.707,7.689z" id="XMLID_1370_" style="fill:#303C42;"/><path d="M22.658,3.518l-0.823-0.275L21.56,2.42c-0.136-0.408-0.813-0.408-0.948,0     l-0.275,0.823l-0.824,0.275c-0.204,0.068-0.342,0.259-0.342,0.474c0,0.215,0.138,0.406,0.342,0.474l0.824,0.275l0.275,0.823     c0.068,0.204,0.259,0.342,0.474,0.342s0.406-0.138,0.474-0.342l0.275-0.823l0.823-0.275C22.862,4.398,23,4.207,23,3.992     S22.862,3.586,22.658,3.518z" id="XMLID_1587_" style="fill:#303C42;"/><path d="M16.185,2.785l0.384,0.128l0.128,0.384c0.068,0.204,0.259,0.342,0.474,0.342     s0.406-0.138,0.474-0.342l0.128-0.384l0.384-0.128c0.204-0.068,0.342-0.259,0.342-0.474s-0.138-0.406-0.342-0.474l-0.384-0.128     l-0.128-0.384c-0.136-0.409-0.813-0.408-0.948,0l-0.128,0.384l-0.384,0.128c-0.204,0.068-0.342,0.259-0.342,0.474     C15.843,2.526,15.981,2.717,16.185,2.785z" id="XMLID_1588_" style="fill:#303C42;"/><path d="M21.658,9.179l-0.384-0.128l-0.128-0.384c-0.137-0.409-0.813-0.408-0.948,0     L20.07,9.051l-0.384,0.128c-0.204,0.068-0.342,0.259-0.342,0.474s0.138,0.406,0.342,0.474l0.384,0.128l0.128,0.384     c0.068,0.204,0.259,0.342,0.474,0.342s0.406-0.138,0.474-0.342l0.128-0.384l0.384-0.128C21.862,10.059,22,9.868,22,9.653     S21.862,9.247,21.658,9.179z" id="XMLID_1589_" style="fill:#303C42;"/></g></g><linearGradient gradientUnits="userSpaceOnUse" id="XMLID_2_" x1="6.0038" x2="19.1269" y1="9.8054" y2="15.9249"><stop offset="0" style="stop-color:#FFFFFF;stop-opacity:0.2"/><stop offset="1" style="stop-color:#FFFFFF;stop-opacity:0"/></linearGradient><path d="M15.586,5.568l-14,14C1.208,19.945,1,20.448,1,20.982   s0.208,1.036,0.586,1.414S2.466,22.982,3,22.982s1.037-0.208,1.414-0.586l14-14C18.792,8.019,19,7.516,19,6.982   s-0.208-1.037-0.586-1.414C17.659,4.812,16.341,4.812,15.586,5.568z M16.185,2.785l0.384,0.128l0.128,0.384   c0.068,0.204,0.259,0.342,0.474,0.342s0.406-0.138,0.474-0.342l0.128-0.384l0.384-0.128c0.204-0.068,0.342-0.259,0.342-0.474   s-0.138-0.406-0.342-0.474l-0.384-0.128l-0.128-0.384c-0.136-0.409-0.813-0.408-0.948,0l-0.128,0.384l-0.384,0.128   c-0.204,0.068-0.342,0.259-0.342,0.474C15.843,2.526,15.981,2.717,16.185,2.785z M22.658,3.518l-0.823-0.275L21.56,2.42   c-0.136-0.408-0.813-0.408-0.948,0l-0.275,0.823l-0.824,0.275c-0.204,0.068-0.342,0.259-0.342,0.474   c0,0.215,0.138,0.406,0.342,0.474l0.824,0.275l0.275,0.823c0.068,0.204,0.259,0.342,0.474,0.342s0.406-0.138,0.474-0.342   l0.275-0.823l0.823-0.275C22.862,4.398,23,4.207,23,3.992S22.862,3.586,22.658,3.518z M21.658,9.179l-0.384-0.128l-0.128-0.384   c-0.137-0.409-0.813-0.408-0.948,0L20.07,9.051l-0.384,0.128c-0.204,0.068-0.342,0.259-0.342,0.474s0.138,0.406,0.342,0.474   l0.384,0.128l0.128,0.384c0.068,0.204,0.259,0.342,0.474,0.342s0.406-0.138,0.474-0.342l0.128-0.384l0.384-0.128   C21.862,10.059,22,9.868,22,9.653S21.862,9.247,21.658,9.179z" id="XMLID_1617_" style="fill:url(#XMLID_2_);"/></g></svg>